<?xml version="1.0" encoding="utf-8"?>
<!-- Generator: Adobe Illustrator 21.1.0, SVG Export Plug-In . SVG Version: 6.00 Build 0)  -->
<svg version="1.1" id="Layer_1" xmlns="http://www.w3.org/2000/svg" xmlns:xlink="http://www.w3.org/1999/xlink" x="0px" y="0px"
	 viewBox="0 0 728.5 173.6" style="enable-background:new 0 0 728.5 173.6;" xml:space="preserve">
<style type="text/css">
	.st0{fill:#4267B2;}
</style>
<path class="st0" d="M189.3,35.8c-4.1-1.4-7.3-2-9.5-2c-3.6,0-6.6,1.5-9.1,4.6s-3.7,6.8-3.7,11.3c0,0.7,0,1.3,0.1,2h16.7V67h-16.4
	v65h-18.8V67h-11.7V51.5h11.8c0.4-9.9,3.3-17.8,8.8-23.9c5.4-6.1,12.5-9.1,21.1-9.1c4.5,0,9.9,1,16.3,2.9L189.3,35.8L189.3,35.8z
	 M248.2,69.1c-3.4-2.2-7-3.3-11.1-3.3c-4.4,0-8.2,2-11.6,5.9c-3.4,4-5.1,8.8-5.1,14.5v45.9h-18.8V51.5h18.8v7.4
	c5.3-5.9,12.3-8.9,21-8.9c6.4,0,11.3,1,14.7,2.9L248.2,69.1L248.2,69.1z M272.8,132.1V67h-10.3V51.5h29.3V132h-19V132.1z
	 M282.5,20.3c3,0,5.6,1.1,7.7,3.2s3.2,4.7,3.2,7.7s-1.1,5.6-3.2,7.7c-2.1,2.1-4.7,3.2-7.7,3.2s-5.6-1.1-7.7-3.2
	c-2.1-2.1-3.2-4.7-3.2-7.7s1.1-5.6,3.2-7.7S279.4,20.3,282.5,20.3z M385.9,97.6h-57.5c0.4,6.4,2.6,11.4,6.6,15s9.5,5.3,16.4,5.3
	c8.6,0,15.1-2.2,19.6-6.7l7.3,14.4c-6.6,5.4-16.5,8-29.6,8c-12.3,0-22-3.6-29.1-10.8s-10.7-17.2-10.7-30.1c0-12.7,3.9-23,11.8-30.8
	c7.6-7.9,17-11.9,28-11.9c11.7,0,21.1,3.5,28.1,10.5c7.1,7,10.6,15.8,10.6,26.6C387.4,89.4,386.9,92.9,385.9,97.6L385.9,97.6z
	 M329,83.4h39.6c-1.3-11.8-7.8-17.7-19.6-17.7C338.3,65.8,331.6,71.6,329,83.4z M454.6,132.1V85.5c0-6.9-1.3-11.9-3.9-15
	c-2.6-3.2-6.9-4.7-12.9-4.7c-2.8,0-5.7,0.8-8.8,2.3c-3.1,1.6-5.6,3.5-7.3,5.8v58.2h-18.8V51.5h13.5l3.5,7.5c5.1-6,12.7-9,22.6-9
	c9.6,0,17.1,2.9,22.7,8.6c5.5,5.7,8.3,13.7,8.3,24V132h-18.9L454.6,132.1z M545.8,132.1v-4.9c-1.6,1.7-4.2,3.2-7.9,4.5
	s-7.5,1.9-11.5,1.9c-11.2,0-20.1-3.6-26.5-10.7c-6.4-7.1-9.7-17-9.7-29.8c0-12.7,3.7-23.1,11.1-31.1s16.7-12,27.8-12
	c6.1,0,11.7,1.3,16.7,3.8V21.5l18.8-4.5v115h-18.8V132.1z M545.8,70.8c-4-3.2-8.2-4.8-12.6-4.8c-7.5,0-13.3,2.3-17.4,6.9
	s-6.1,11.2-6.1,19.7c0,16.7,8.1,25.1,24.2,25.1c1.8,0,4-0.5,6.7-1.6c2.6-1.1,4.3-2.2,5.2-3.3V70.8z M655.6,97.6h-57.5
	c0.4,6.4,2.6,11.4,6.6,15s9.5,5.3,16.4,5.3c8.6,0,15.1-2.2,19.6-6.7l7.3,14.4c-6.6,5.4-16.5,8-29.6,8c-12.3,0-22-3.6-29.1-10.8
	s-10.7-17.2-10.7-30.1c0-12.7,3.9-23,11.8-30.8C598.1,54,607.5,50,618.5,50c11.7,0,21.1,3.5,28.1,10.5c7.1,7,10.6,15.8,10.6,26.6
	C657.2,89.4,656.7,92.9,655.6,97.6z M598.8,83.4h39.6c-1.3-11.8-7.8-17.7-19.6-17.7C608,65.8,601.4,71.6,598.8,83.4z M719.1,69.1
	c-3.4-2.2-7-3.3-11.1-3.3c-4.4,0-8.2,2-11.6,5.9c-3.4,4-5.1,8.8-5.1,14.5v45.9h-18.8V51.5h18.8v7.4c5.3-5.9,12.3-8.9,21-8.9
	c6.4,0,11.3,1,14.7,2.9L719.1,69.1L719.1,69.1z"/>
<g>
	<path class="st0" d="M60,16.1c-33.1,0-60,26.9-60,60s26.9,60,60,60s60-26.9,60-60S93.1,16.1,60,16.1z M60,126.9
		c-28,0-50.7-22.8-50.7-50.7S32,25.4,60,25.4s50.7,22.8,50.7,50.7S88,126.9,60,126.9z"/>
	<path class="st0" d="M43.9,70.8c0,5.9-4.8,10.8-10.8,10.8c-5.9,0-10.8-4.8-10.8-10.8c0-5.9,4.8-10.8,10.8-10.8
		C39,60,43.9,64.8,43.9,70.8z M81.9,51.7c0,5.9-4.8,10.8-10.8,10.8c-5.9,0-10.8-4.8-10.8-10.8c0-5.9,4.8-10.8,10.8-10.8
		S81.9,45.8,81.9,51.7z M97.5,73.8c-3.1-0.8-6.3,1-7.1,4.1c-3.4,12.5-9.5,20.8-18.1,24.6c-7.9,3.5-18.2,3.6-30.7,0.2
		c-3.1-0.8-6.3,1-7.1,4.1s1,6.3,4.1,7.1c7,1.9,13.6,2.8,19.7,2.8c6.9,0,13.1-1.2,18.7-3.7c12-5.3,20.3-16.2,24.6-32.2
		C102.5,77.9,100.6,74.7,97.5,73.8z"/>
</g>
<path class="st0" d="M281.2,3.1c0.9,0.4,1.4,1.2,2.1,1.9c1.1,1,2,2.3,3,3.3c1.3,1.3,2.2,2.9,3.3,4.4c2,3,3.7,6.1,4.6,9.6
	c0.9,2.4,1.1,4.9,1,7.4c0.1,2.3-0.6,4.6-1.6,6.6c-1.8,3.1-5,5.2-8.4,6.3c-4.2,1-8.8,1.2-12.9-0.6c-1.5-0.8-3.1-1.3-4.3-2.6
	c-2.7-2.2-4.3-5.9-3.8-9.4c0.8-6.3,4.6-11.7,8.6-16.3c0.4,0.7,0.1,1.5,0.3,2.2c0.3,1.5,0.9,3.1,2,4.2c1.4-1.3,2.9-2.6,4.1-4.1
	c1.1-1.6,2-3.4,2.4-5.3c0.1-2.4,0.3-4.9-0.6-7.2L281.2,3.1L281.2,3.1z"/>
</svg>
